<?xml version="1.0" encoding="utf-8"?>
<!-- Generator: Adobe Illustrator 24.1.2, SVG Export Plug-In . SVG Version: 6.00 Build 0)  -->
<svg version="1.1" id="Warstwa_3" xmlns="http://www.w3.org/2000/svg" xmlns:xlink="http://www.w3.org/1999/xlink" x="0px" y="0px"
	 viewBox="0 0 430 430" style="enable-background:new 0 0 430 430;" xml:space="preserve" width="280" height="220">
<style type="text/css">
	.st0{fill:#08A88A;}
	.st1{fill:#121331;}
	.st2{fill:none;}
	.st3{fill:#08A88A;fill-opacity:0;}
</style>
<g>
<!-- wheelone -->
	<path class="st0" d="M102.5,331.54c-43.94,0-79.69-35.75-79.69-79.69s35.75-79.69,79.69-79.69s79.69,35.75,79.69,79.69
		S146.44,331.54,102.5,331.54z M102.5,184.77c-36.99,0-67.09,30.1-67.09,67.09c0,36.99,30.1,67.09,67.09,67.09
		s67.09-30.1,67.09-67.09C169.59,214.86,139.49,184.77,102.5,184.77z"/>
<!-- wheel one inner stroke --><g>
	<path class="st0" d="M102.5,307.85c-30.88,0-55.99-25.12-55.99-55.99c0-3.48,2.82-6.3,6.3-6.3s6.3,2.82,6.3,6.3
		c0,23.93,19.47,43.39,43.39,43.39c3.48,0,6.3,2.82,6.3,6.3S105.98,307.85,102.5,307.85z"/>
		
		</g>
<!-- wheel two  -->
	<path class="st0" d="M327.5,331.54c-43.94,0-79.69-35.75-79.69-79.69s35.75-79.69,79.69-79.69s79.69,35.75,79.69,79.69
		S371.44,331.54,327.5,331.54z M327.5,184.77c-36.99,0-67.09,30.1-67.09,67.09c0,36.99,30.1,67.09,67.09,67.09
		s67.09-30.1,67.09-67.09C394.59,214.86,364.49,184.77,327.5,184.77z"/>
	<!-- wheel two inner stroke  -->
	<path class="st0" d="M327.5,307.85c-30.88,0-55.99-25.12-55.99-55.99c0-3.48,2.82-6.3,6.3-6.3s6.3,2.82,6.3,6.3
		c0,23.93,19.47,43.39,43.39,43.39c3.48,0,6.3,2.82,6.3,6.3S330.98,307.85,327.5,307.85z"/>
	
	<path class="st1" d="M214.59,258.15H102.5c-2.39,0-4.58-1.36-5.64-3.5c-1.06-2.15-0.82-4.71,0.63-6.61l72.06-94.68
		c1.36-1.79,3.57-2.72,5.8-2.44c2.23,0.28,4.14,1.73,5.02,3.8l40.03,94.68c0.82,1.95,0.62,4.17-0.55,5.93
		C218.67,257.09,216.7,258.15,214.59,258.15z M115.21,245.55h89.87l-32.1-75.92L115.21,245.55z"/>
	<path class="st1" d="M214.58,258.15c-1.2,0-2.42-0.34-3.49-1.06c-2.9-1.93-3.68-5.84-1.75-8.74l71.49-107.23l-104.97,22.21
		c-2.92,0.62-5.88-0.9-7.07-3.63l-22.69-51.78c-1.4-3.19,0.06-6.9,3.24-8.3c3.18-1.39,6.9,0.05,8.3,3.24l20.63,47.08l115.07-24.35
		c2.5-0.54,5.08,0.51,6.52,2.63c1.44,2.12,1.45,4.9,0.03,7.03l-80.06,120.09C218.62,257.17,216.62,258.15,214.58,258.15z"/>
	<path class="st1" d="M328,258.16c-2.76,0-5.29-1.83-6.07-4.62l-33.36-120.09c-0.02-0.08-0.04-0.15-0.06-0.23l-6.36-26.69
		c-0.45-1.88-0.01-3.85,1.18-5.36c1.2-1.51,3.02-2.4,4.94-2.4h31.37c10.83,0,19.64,8.81,19.64,19.64s-8.81,19.64-19.64,19.64
		c-3.48,0-6.3-2.82-6.3-6.3s2.82-6.3,6.3-6.3c3.88,0,7.04-3.16,7.04-7.04s-3.16-7.04-7.04-7.04h-23.39l4.48,18.81l33.33,119.98
		c0.93,3.35-1.03,6.83-4.38,7.76C329.13,258.08,328.56,258.16,328,258.16z"/>
	<path class="st0" d="M167.89,111.06h-40.03c-3.48,0-6.3-2.82-6.3-6.3s2.82-6.3,6.3-6.3h40.03c3.48,0,6.3,2.82,6.3,6.3
		S171.37,111.06,167.89,111.06z"/>
</g>
</svg>
