<?xml version="1.0" encoding="utf-8"?>
<svg xmlns="http://www.w3.org/2000/svg" style="margin: auto; display: block; shape-rendering: auto;" width="280" height="220" preserveAspectRatio="xMidYMid">
<style type="text/css">
  text {
    text-anchor: middle; font-size: 71px; opacity: 0;
  }
</style>
<g style="transform-origin:140px 110px;transform:scale(1)">
<g transform="translate(140,110)">
  <g transform="translate(0,0)"><g class="path" style="transform: scale(0.91); transform-origin: -117.505px -5.69624px; animation: 1s linear -0.6s infinite normal forwards running breath-47cd9e13-ecf3-4c05-a37a-ed4c86d22bac;"><path d="M17.18-2.56L17.18-2.56L17.18-2.56Q16.26-1.35 14.66-0.36L14.66-0.36L14.66-0.36Q13.06 0.64 10.51 0.64L10.51 0.64L10.51 0.64Q7.95 0.64 6.18-0.99L6.18-0.99L6.18-0.99Q4.40-2.63 4.40-5.61L4.40-5.61L4.40-5.61Q4.40-6.18 4.54-7.46L4.54-7.46L9.16-33.02L9.16-33.02Q10.44-40.04 12.67-43.03L12.67-43.03L12.67-43.03Q14.91-46.01 18.60-46.01L18.60-46.01L18.60-46.01Q21.16-46.01 22.83-44.09L22.83-44.09L22.83-44.09Q24.50-42.17 24.50-38.27L24.50-38.27L24.50-38.27Q24.50-34.36 21.48-27.12L21.48-27.12L21.48-27.12Q18.46-19.88 18.46-16.54L18.46-16.54L17.18-16.54L17.18-16.54Q17.18-20.31 20.16-27.30L20.16-27.30L20.16-27.30Q23.15-34.29 23.15-38.48L23.15-38.48L23.15-38.48Q23.15-41.04 21.97-42.88L21.97-42.88L21.97-42.88Q20.80-44.73 19.10-44.73L19.10-44.73L19.10-44.73Q19.03-42.88 16.65-28.15L16.65-28.15L16.65-28.15Q14.27-13.42 11.93-0.78L11.93-0.78L11.93-0.78Q13.92-0.78 15.62-2.84L15.62-2.84L15.62-2.84Q17.32-4.90 18.03-6.96L18.03-6.96L18.82-9.09L20.09-8.52L20.09-8.52Q19.88-7.53 18.99-5.64L18.99-5.64L18.99-5.64Q18.11-3.76 17.18-2.56" fill="#ffffff" stroke="none" stroke-width="none" transform="translate(-131.95498657226562,16.988762012828477)" style="fill: rgb(255, 255, 255);"></path></g><g class="path" style="transform: scale(0.91); transform-origin: -94.11px 3.49876px; animation: 1s linear -0.54s infinite normal forwards running breath-47cd9e13-ecf3-4c05-a37a-ed4c86d22bac;"><path d="M35.07 0.64L35.07 0.64Q29.61 0.64 26.77-2.09L26.77-2.09L26.77-2.09Q23.93-4.83 23.93-8.98L23.93-8.98L23.93-8.98Q23.93-13.14 24.67-16.08L24.67-16.08L24.67-16.08Q25.42-19.03 27.12-21.76L27.12-21.76L27.12-21.76Q28.83-24.50 32.27-26.06L32.27-26.06L32.27-26.06Q35.71-27.62 40.86-27.62L40.86-27.62L40.86-27.62Q46.01-27.62 48.88-24.89L48.88-24.89L48.88-24.89Q51.76-22.15 51.76-17.40L51.76-17.40L51.76-17.40Q51.76-9.30 47.46-4.33L47.46-4.33L47.46-4.33Q43.17 0.64 35.07 0.64L35.07 0.64zM31.95-6.67L31.95-6.67L31.95-6.67Q31.95-0.99 35.25-0.99L35.25-0.99L35.25-0.99Q38.55-0.99 41.14-6.71L41.14-6.71L41.14-6.71Q43.74-12.43 43.74-20.31L43.74-20.31L43.74-20.31Q43.74-26.27 40.51-26.27L40.51-26.27L40.51-26.27Q37.28-26.27 34.61-20.84L34.61-20.84L34.61-20.84Q31.95-15.41 31.95-6.67" fill="#ffffff" stroke="none" stroke-width="none" transform="translate(-131.95498657226562,16.988762012828477)" style="fill: rgb(245, 253, 255);"></path></g><g class="path" style="transform: scale(0.91); transform-origin: -61.38px 3.49876px; animation: 1s linear -0.48s infinite normal forwards running breath-47cd9e13-ecf3-4c05-a37a-ed4c86d22bac;"><path d="M80.30 0.64L80.30 0.64L80.30 0.64Q74.05 0.64 73.49-4.83L73.49-4.83L73.49-4.83Q70.36 0.64 65.60 0.64L65.60 0.64L65.60 0.64Q60.85 0.64 58.04-2.24L58.04-2.24L58.04-2.24Q55.24-5.11 55.24-10.30L55.24-10.30L55.24-10.30Q55.24-18.39 59.21-23.00L59.21-23.00L59.21-23.00Q63.19-27.62 69.51-27.62L69.51-27.62L69.51-27.62Q74.69-27.62 76.40-22.72L76.40-22.72L76.40-22.72Q76.75-24.85 77.18-26.98L77.18-26.98L77.18-26.98Q82.43-26.98 84.99-27.41L84.99-27.41L85.91-27.62L81.01-0.78L81.01-0.78Q83.14-0.99 84.56-2.77L84.56-2.77L85.63-1.92L85.63-1.92Q83.50 0.64 80.30 0.64zM63.26-6.67L63.26-6.67Q63.26-3.48 64.08-2.24L64.08-2.24L64.08-2.24Q64.89-0.99 66.60-0.99L66.60-0.99L66.60-0.99Q68.30-0.99 70.08-2.84L70.08-2.84L70.08-2.84Q72.42-5.25 73.84-8.95L73.84-8.95L73.84-8.95Q74.05-9.87 74.66-13.38L74.66-13.38L74.66-13.38Q75.26-16.90 75.69-19.17L75.69-19.17L75.69-19.17Q75.47-21.87 74.20-23.86L74.20-23.86L74.20-23.86Q72.92-25.84 71-25.84L71-25.84L71-25.84Q67.52-25.84 65.39-19.63L65.39-19.63L65.39-19.63Q63.26-13.42 63.26-6.67L63.26-6.67" fill="#ffffff" stroke="none" stroke-width="none" transform="translate(-131.95498657226562,16.988762012828477)" style="fill: rgb(231, 246, 255);"></path></g><g class="path" style="transform: scale(0.91); transform-origin: -26.27px -5.69624px; animation: 1s linear -0.42s infinite normal forwards running breath-47cd9e13-ecf3-4c05-a37a-ed4c86d22bac;"><path d="M114.24 0.64L114.24 0.64L114.24 0.64Q107.99 0.64 107.42-4.69L107.42-4.69L107.42-4.69Q104.30 0.64 99.47 0.64L99.47 0.64L99.47 0.64Q94.64 0.64 92.09-2.09L92.09-2.09L92.09-2.09Q89.53-4.83 89.53-9.59L89.53-9.59L89.53-9.59Q89.53-17.96 93.51-22.79L93.51-22.79L93.51-22.79Q97.48-27.62 103.80-27.62L103.80-27.62L103.80-27.62Q107.42-27.62 109.41-25.42L109.41-25.42L109.41-25.42Q110.26-24.28 110.48-23.71L110.48-23.71L114.31-44.59L114.31-44.59Q112.18-44.38 110.76-42.60L110.76-42.60L109.70-43.45L109.70-43.45Q111.83-46.01 115.06-46.01L115.06-46.01L115.06-46.01Q118.29-46.01 120.06-44.38L120.06-44.38L120.06-44.38Q121.84-42.74 121.84-39.76L121.84-39.76L121.84-39.76Q121.84-39.19 121.69-37.91L121.69-37.91L121.69-37.91Q118.22-18.39 114.95-0.78L114.95-0.78L114.95-0.78Q117.08-0.99 118.50-2.77L118.50-2.77L119.56-1.92L119.56-1.92Q117.43 0.64 114.24 0.64zM97.55-6.67L97.55-6.67Q97.55-3.41 98.23-2.20L98.23-2.20L98.23-2.20Q98.90-0.99 100.36-0.99L100.36-0.99L100.36-0.99Q101.81-0.99 103.16-1.99L103.16-1.99L103.16-1.99Q104.51-2.98 105.44-4.54L105.44-4.54L105.44-4.54Q107.14-7.17 107.85-9.02L107.85-9.02L109.91-20.24L109.91-20.24Q109.77-22.51 108.42-24.39L108.42-24.39L108.42-24.39Q107.07-26.27 103.80-26.27L103.80-26.27L103.80-26.27Q101.53-26.27 99.54-19.60L99.54-19.60L99.54-19.60Q97.55-12.92 97.55-6.67L97.55-6.67" fill="#ffffff" stroke="none" stroke-width="none" transform="translate(-131.95498657226562,16.988762012828477)" style="fill: rgb(219, 236, 255);"></path></g><g class="path" style="transform: scale(0.91); transform-origin: -1.27999px 3.49876px; animation: 1s linear -0.36s infinite normal forwards running breath-47cd9e13-ecf3-4c05-a37a-ed4c86d22bac;"><path d="M136.60-1.92L136.60-1.92Q134.47 0.64 131.28 0.64L131.28 0.64L131.28 0.64Q128.08 0.64 126.27-0.99L126.27-0.99L126.27-0.99Q124.46-2.63 124.46-5.25L124.46-5.25L124.46-5.25Q124.46-6.18 125.60-12.99L125.60-12.99L127.94-25.70L124.96-25.70L125.10-26.98L128.16-26.98L128.16-26.98Q133.41-26.98 135.89-27.41L135.89-27.41L136.89-27.62L131.99-0.78L131.99-0.78Q134.12-0.99 135.54-2.77L135.54-2.77L136.60-1.92" fill="#ffffff" stroke="none" stroke-width="none" transform="translate(-131.95498657226562,16.988762012828477)" style="fill: rgb(211, 230, 255);"></path></g><g class="path" style="transform: scale(0.91); transform-origin: 2.06001px -21.1012px; animation: 1s linear -0.3s infinite normal forwards running breath-47cd9e13-ecf3-4c05-a37a-ed4c86d22bac;"><path d="M130.36-34.44L130.36-34.44L130.36-34.44Q128.87-35.93 128.87-38.06L128.87-38.06L128.87-38.06Q128.87-40.19 130.36-41.71L130.36-41.71L130.36-41.71Q131.85-43.24 133.98-43.24L133.98-43.24L133.98-43.24Q136.11-43.24 137.63-41.71L137.63-41.71L137.63-41.71Q139.16-40.19 139.16-38.06L139.16-38.06L139.16-38.06Q139.16-35.93 137.63-34.44L137.63-34.44L137.63-34.44Q136.11-32.94 133.98-32.94L133.98-32.94L133.98-32.94Q131.85-32.94 130.36-34.44" fill="#ffffff" stroke="none" stroke-width="none" transform="translate(-131.95498657226562,16.988762012828477)" style="fill: rgb(255, 255, 255);"></path></g><g class="path" style="transform: scale(0.91); transform-origin: 24.845px 3.49876px; animation: 1s linear -0.24s infinite normal forwards running breath-47cd9e13-ecf3-4c05-a37a-ed4c86d22bac;"><path d="M168.13-0.78L168.13-0.78L168.13-0.78Q169.83-0.78 171.68-2.77L171.68-2.77L172.74-1.92L172.74-1.92Q172.25-0.92 170.54-0.14L170.54-0.14L170.54-0.14Q168.84 0.64 166.78 0.64L166.78 0.64L166.78 0.64Q160.32 0.64 160.32-5.18L160.32-5.18L160.32-5.18Q160.32-7.67 161.60-14.06L161.60-14.06L161.60-14.06Q162.87-20.45 162.87-22.44L162.87-22.44L162.87-22.44Q162.87-25.49 159.96-25.49L159.96-25.49L159.96-25.49Q157.62-25.49 155.45-22.44L155.45-22.44L155.45-22.44Q153.29-19.38 151.87-14.06L151.87-14.06L149.46-0.78L149.46-0.78Q151.66-0.99 153.08-2.77L153.08-2.77L154.14-1.92L154.14-1.92Q152.01 0.64 148.82 0.64L148.82 0.64L148.82 0.64Q145.62 0.64 143.81-0.99L143.81-0.99L143.81-0.99Q142.00-2.63 142.00-5.25L142.00-5.25L142.00-5.25Q142.00-6.25 143.14-13.06L143.14-13.06L145.48-26.20L145.48-26.20Q143.35-25.99 141.93-24.21L141.93-24.21L140.86-25.06L140.86-25.06Q142.99-27.62 146.22-27.62L146.22-27.62L146.22-27.62Q149.46-27.62 151.23-25.99L151.23-25.99L151.23-25.99Q153.01-24.35 153.01-21.37L153.01-21.37L153.01-20.95L153.01-20.95Q155.92-27.62 162.09-27.62L162.09-27.62L162.09-27.62Q166.28-27.62 168.63-25.24L168.63-25.24L168.63-25.24Q170.97-22.86 170.97-18.67L170.97-18.67L170.97-18.67Q170.97-16.47 169.62-10.19L169.62-10.19L169.62-10.19Q168.27-3.91 168.13-0.78" fill="#ffffff" stroke="none" stroke-width="none" transform="translate(-131.95498657226562,16.988762012828477)" style="fill: rgb(245, 253, 255);"></path></g><g class="path" style="transform: scale(0.91); transform-origin: 58.47px 9.70876px; animation: 1s linear -0.18s infinite normal forwards running breath-47cd9e13-ecf3-4c05-a37a-ed4c86d22bac;"><path d="M199.44 7.74L199.44 7.74L199.44 7.74Q202.00 7.74 203.84 5.75L203.84 5.75L204.84 6.60L204.84 6.60Q203.13 9.02 199.44 9.02L199.44 9.02L199.44 9.02Q197.88 9.02 196.24 8.66L196.24 8.66L196.24 8.66Q191.42 13.06 183.89 13.06L183.89 13.06L183.89 13.06Q179.42 13.06 176.97 11.54L176.97 11.54L176.97 11.54Q174.52 10.01 174.52 7.56L174.52 7.56L174.52 7.56Q174.52 5.11 176.04 3.66L176.04 3.66L176.04 3.66Q177.57 2.20 181.48 2.20L181.48 2.20L181.48 2.20Q185.38 2.20 191.77 5.40L191.77 5.40L193.97-6.39L193.97-6.39Q190.78-0.50 185.74-0.50L185.74-0.50L185.74-0.50Q176.08-0.50 176.08-10.01L176.08-10.01L176.08-10.01Q176.08-17.96 180.09-22.79L180.09-22.79L180.09-22.79Q184.10-27.62 190.35-27.62L190.35-27.62L190.35-27.62Q193.97-27.62 195.96-25.42L195.96-25.42L195.96-25.42Q196.53-24.78 197.10-23.50L197.10-23.50L197.74-26.98L197.74-26.98Q202.99-26.98 205.40-27.41L205.40-27.41L206.33-27.62L201.64-1.42L201.64-1.42Q200.58 4.12 197.38 7.53L197.38 7.53L197.38 7.53Q198.30 7.74 199.44 7.74zM184.10-7.81L184.10-7.81Q184.10-4.54 184.74-3.44L184.74-3.44L184.74-3.44Q185.38-2.34 187.16-2.34L187.16-2.34L187.16-2.34Q188.93-2.34 190.78-4.26L190.78-4.26L190.78-4.26Q192.62-6.18 193.44-7.85L193.44-7.85L193.44-7.85Q194.26-9.51 194.82-11.08L194.82-11.08L196.32-19.24L196.32-19.74L196.32-19.74Q196.32-26.27 190.35-26.27L190.35-26.27L190.35-26.27Q188.08-26.27 186.09-20.09L186.09-20.09L186.09-20.09Q184.10-13.92 184.10-7.81L184.10-7.81zM183.61 11.64L183.61 11.64L183.61 11.64Q189.29 11.64 191.27 6.75L191.27 6.75L190.28 6.25L190.28 6.25Q189.43 5.82 189.25 5.72L189.25 5.72L189.25 5.72Q189.07 5.61 188.29 5.25L188.29 5.25L188.29 5.25Q187.51 4.90 187.16 4.79L187.16 4.79L187.16 4.79Q186.80 4.69 186.06 4.40L186.06 4.40L186.06 4.40Q185.31 4.12 184.81 4.01L184.81 4.01L184.81 4.01Q184.32 3.91 183.68 3.76L183.68 3.76L183.68 3.76Q182.61 3.55 180.55 3.55L180.55 3.55L180.55 3.55Q178.49 3.55 177.25 4.54L177.25 4.54L177.25 4.54Q176.01 5.54 176.01 7.46L176.01 7.46L176.01 7.46Q176.01 9.37 178.07 10.51L178.07 10.51L178.07 10.51Q180.13 11.64 183.61 11.64" fill="#ffffff" stroke="none" stroke-width="none" transform="translate(-131.95498657226562,16.988762012828477)" style="fill: rgb(231, 246, 255);"></path></g><g class="path" style="transform: scale(0.91); transform-origin: 97.555px 12.4088px; animation: 1s linear -0.12s infinite normal forwards running breath-47cd9e13-ecf3-4c05-a37a-ed4c86d22bac;"><path d="M225.85-0.92L225.85-0.92L225.85-0.92Q224.36-2.41 224.36-4.54L224.36-4.54L224.36-4.54Q224.36-6.67 225.85-8.20L225.85-8.20L225.85-8.20Q227.34-9.73 229.47-9.73L229.47-9.73L229.47-9.73Q231.60-9.73 233.13-8.20L233.13-8.20L233.13-8.20Q234.66-6.67 234.66-4.54L234.66-4.54L234.66-4.54Q234.66-2.41 233.13-0.92L233.13-0.92L233.13-0.92Q231.60 0.57 229.47 0.57L229.47 0.57L229.47 0.57Q227.34 0.57 225.85-0.92" fill="#ffffff" stroke="none" stroke-width="none" transform="translate(-131.95498657226562,16.988762012828477)" style="fill: rgb(219, 236, 255);"></path></g><g class="path" style="transform: scale(0.91); transform-origin: 114.38px 12.4088px; animation: 1s linear -0.06s infinite normal forwards running breath-47cd9e13-ecf3-4c05-a37a-ed4c86d22bac;"><path d="M242.68-0.92L242.68-0.92L242.68-0.92Q241.19-2.41 241.19-4.54L241.19-4.54L241.19-4.54Q241.19-6.67 242.68-8.20L242.68-8.20L242.68-8.20Q244.17-9.73 246.30-9.73L246.30-9.73L246.30-9.73Q248.43-9.73 249.96-8.20L249.96-8.20L249.96-8.20Q251.48-6.67 251.48-4.54L251.48-4.54L251.48-4.54Q251.48-2.41 249.96-0.92L249.96-0.92L249.96-0.92Q248.43 0.57 246.30 0.57L246.30 0.57L246.30 0.57Q244.17 0.57 242.68-0.92" fill="#ffffff" stroke="none" stroke-width="none" transform="translate(-131.95498657226562,16.988762012828477)" style="fill: rgb(211, 230, 255);"></path></g><g class="path" style="transform: scale(0.91); transform-origin: 131.205px 12.4088px; animation: 1s linear 0s infinite normal forwards running breath-47cd9e13-ecf3-4c05-a37a-ed4c86d22bac;"><path d="M259.50-0.92L259.50-0.92L259.50-0.92Q258.01-2.41 258.01-4.54L258.01-4.54L258.01-4.54Q258.01-6.67 259.50-8.20L259.50-8.20L259.50-8.20Q261.00-9.73 263.13-9.73L263.13-9.73L263.13-9.73Q265.26-9.73 266.78-8.20L266.78-8.20L266.78-8.20Q268.31-6.67 268.31-4.54L268.31-4.54L268.31-4.54Q268.31-2.41 266.78-0.92L266.78-0.92L266.78-0.92Q265.26 0.57 263.13 0.57L263.13 0.57L263.13 0.57Q261.00 0.57 259.50-0.92" fill="#ffffff" stroke="none" stroke-width="none" transform="translate(-131.95498657226562,16.988762012828477)" style="fill: rgb(255, 255, 255);"></path></g></g>
</g>
</g>
<style id="breath-47cd9e13-ecf3-4c05-a37a-ed4c86d22bac" data-anikit="">@keyframes breath-47cd9e13-ecf3-4c05-a37a-ed4c86d22bac
{
  0% {
    animation-timing-function: cubic-bezier(0.9647,0.2413,-0.0705,0.7911);
    transform: scale(0.9099999999999999);
  }
  51% {
    animation-timing-function: cubic-bezier(0.9226,0.2631,-0.0308,0.7628);
    transform: scale(1.02994);
  }
  100% {
    transform: scale(0.9099999999999999);
  }
}</style></svg>